<svg xmlns="http://www.w3.org/2000/svg" viewBox="0 0 207 207" width="207" height="207">
	<style>
		tspan { white-space:pre }
		.shp0 { fill: #e5983c } 
		.shp1 { fill: #fbc373 } 
		.shp2 { fill: #f9b767 } 
		.shp3 { fill: #ffd097 } 
	</style>
	<g id="XMLID_153_">
		<path id="XMLID_180_" class="shp0" d="M129.92 70.63C117.36 62.4 113.2 56.23 110.67 52.54C108.82 49.85 107.08 47.26 103.44 47.26C99.8 47.26 98.06 49.79 96.21 52.54C93.73 56.23 89.51 62.4 76.96 70.63C68.47 76.22 61.45 83.45 56.65 91.46C48.43 105.28 47.11 120.52 52.96 134.34C64.14 160.72 99.43 161.46 103.44 161.46C107.45 161.46 142.73 160.72 153.92 134.34C159.77 120.52 158.45 105.28 150.22 91.46C145.42 83.39 138.41 76.22 129.92 70.63Z" />
		<g id="XMLID_56_">
			<g id="XMLID_60_">
				<g id="XMLID_62_">
					<path id="XMLID_69_" class="shp1" d="M60.03 93.52C52.86 105.6 50.96 119.63 56.6 132.87C65.73 154.33 93.26 157.6 103.44 157.6C113.62 157.6 141.15 154.33 150.28 132.87C155.87 119.63 154.02 105.6 146.85 93.52C135.14 101.69 120 106.6 103.44 106.6C86.88 106.6 71.74 101.64 60.03 93.52Z" />
					<path id="XMLID_164_" class="shp1" d="M60.03 93.52C52.86 105.6 50.96 119.63 56.6 132.87C65.73 154.33 93.26 157.6 103.44 157.6C113.62 157.6 141.15 154.33 150.28 132.87C155.87 119.63 154.02 105.6 146.85 93.52C135.14 101.69 120 106.6 103.44 106.6C86.88 106.6 71.74 101.64 60.03 93.52Z" />
					<path id="XMLID_159_" class="shp2" d="M65.25 137.77C72.69 151.59 95.11 153.65 103.44 153.65C111.77 153.65 134.19 151.54 141.63 137.77C146.22 129.28 116.94 140.15 103.44 140.15C89.94 140.15 60.66 129.28 65.25 137.77Z" />
					<path id="XMLID_70_" fill-rule="evenodd" class="shp0" d="M103.44 158.87C99.64 158.87 65.94 158.13 55.39 133.34C49.85 120.31 51.12 105.91 58.92 92.83C59.13 92.52 59.4 92.31 59.77 92.2C60.14 92.15 60.51 92.2 60.82 92.41C72.69 100.69 87.88 105.28 103.44 105.28C119.05 105.28 134.19 100.69 146.06 92.41C146.37 92.2 146.74 92.15 147.11 92.2C147.48 92.25 147.8 92.52 147.96 92.83C155.76 105.91 157.03 120.31 151.49 133.34C140.94 158.13 107.24 158.87 103.44 158.87ZM60.45 95.37C53.7 107.39 52.75 120.47 57.76 132.29C67.63 155.55 99.75 156.18 103.39 156.18C107.03 156.18 139.15 155.5 149.01 132.29C154.02 120.42 153.07 107.39 146.32 95.37C134.19 103.44 119 107.87 103.39 107.87C87.83 107.92 72.64 103.49 60.45 95.37Z" />
				</g>
				<g id="XMLID_63_">
					<path id="XMLID_57_" class="shp1" d="M127.7 73.9C106.6 60.03 107.61 51.22 103.44 51.22C99.27 51.22 100.27 60.03 79.18 73.9C71.11 79.23 64.57 85.98 60.08 93.47C71.79 101.64 86.93 106.55 103.49 106.55C120.05 106.55 135.19 101.64 146.9 93.47C142.37 85.98 135.83 79.23 127.7 73.9Z" />
					<g id="XMLID_161_">
						<path id="XMLID_162_" class="shp2" d="M79.12 83.39C100.22 69.52 99.22 60.71 103.39 60.71C107.55 60.71 106.55 69.52 127.65 83.39C133.29 87.08 138.2 91.52 142.15 96.42C143.74 95.47 145.27 94.52 146.74 93.47C142.26 85.98 135.72 79.23 127.65 73.9C106.55 60.03 107.55 51.22 103.39 51.22C99.22 51.22 100.22 60.03 79.12 73.9C71.05 79.23 64.51 85.98 60.03 93.47C61.51 94.52 63.04 95.47 64.62 96.42C68.63 91.57 73.48 87.14 79.12 83.39Z" />
					</g>
					<path id="XMLID_66_" fill-rule="evenodd" class="shp0" d="M103.44 107.92C87.3 107.92 71.63 103.17 59.29 94.57C58.71 94.21 58.55 93.41 58.92 92.83C63.51 85.13 70.26 78.17 78.44 72.84C91.41 64.3 95.79 57.86 98.38 54.01C100.06 51.53 101.17 49.9 103.44 49.9C105.71 49.9 106.82 51.53 108.5 54.01C111.14 57.86 115.47 64.3 128.44 72.84C136.62 78.22 143.37 85.13 147.96 92.83C148.33 93.41 148.17 94.21 147.59 94.57C135.24 103.17 119.58 107.92 103.44 107.92ZM61.82 93.1C73.53 100.96 88.3 105.23 103.44 105.23C118.58 105.23 133.29 100.9 145.06 93.1C140.68 86.14 134.45 79.91 127.02 75.01C113.62 66.2 108.87 59.24 106.34 55.44C104.81 53.22 104.28 52.48 103.49 52.48C102.7 52.48 102.12 53.22 100.64 55.44C98.11 59.18 93.37 66.14 79.97 75.01C72.43 79.91 66.2 86.14 61.82 93.1Z" />
				</g>
			</g>
			<g id="XMLID_55_">
				<path id="XMLID_65_" class="shp0" d="M103.28 86.82C102.54 86.82 101.96 86.24 101.96 85.5L101.96 65.83C101.96 65.09 102.54 64.51 103.28 64.51C104.02 64.51 104.6 65.09 104.6 65.83L104.6 85.5C104.6 86.19 104.02 86.82 103.28 86.82Z" />
			</g>
			<g id="XMLID_58_">
				<path id="XMLID_64_" class="shp0" d="M114.41 86.45C113.83 86.45 113.3 86.08 113.14 85.5L107.87 66.57C107.66 65.88 108.08 65.14 108.77 64.93C109.45 64.72 110.19 65.14 110.4 65.83L115.68 84.76C115.89 85.45 115.47 86.19 114.78 86.4C114.62 86.45 114.52 86.45 114.41 86.45Z" />
			</g>
			<g id="XMLID_59_">
				<path id="XMLID_61_" class="shp0" d="M92.2 86.45C92.1 86.45 91.99 86.45 91.84 86.4C91.15 86.19 90.73 85.5 90.94 84.76L96.21 65.83C96.42 65.14 97.11 64.72 97.85 64.93C98.53 65.14 98.96 65.83 98.75 66.57L93.47 85.5C93.31 86.08 92.79 86.45 92.2 86.45Z" />
			</g>
		</g>
	</g>
	<path id="XMLID_155_" class="shp3" d="M102.59 113.4C92.89 115.67 83.13 107.23 75.22 111.98C67.3 116.73 64.67 120.42 70.2 124.22C75.74 128.01 85.08 132.13 96.31 130.65C107.5 129.23 123.74 129.86 130.6 126.96C137.46 124.06 145.21 121.32 141.15 115.62C137.09 109.98 113.77 110.77 102.59 113.4Z" />
</svg>