<svg xmlns="http://www.w3.org/2000/svg" viewBox="0 0 324 260" width="150" height="120">
	<style>
		tspan { white-space:pre }
		.shp0 { fill: none } 
		.shp1 { fill: #fdba63 } 
		.shp2 { fill: #ffffff } 
		.shp3 { fill: #606161 } 
	</style>
	<path id="ee-background" class="shp0" d="M0 0L1400 0L1400 980L0 980L0 0Z" />
	<path id="Layer" class="shp1" d="" />
	<g id="Layer">
		<path id="Layer" class="shp2" d="M280.86 108.99C290.86 96.09 290.86 77.59 284.66 62.99C281.66 55.99 277.06 49.59 270.86 44.99C265.26 40.89 258.26 38.19 251.36 37.49C241.76 36.39 232.36 39.69 224.96 45.79C222.66 47.69 220.56 49.79 218.66 52.19C218.16 52.79 217.76 53.39 217.26 53.99C216.86 54.59 217.86 55.19 218.26 55.69C204.36 52.69 189.96 54.69 177.06 60.49C172.26 62.69 167.76 65.29 163.46 68.39C161.86 69.49 160.36 70.69 158.86 71.99C157.26 73.29 155.36 74.69 154.16 76.49C153.96 76.79 151.86 76.39 151.56 76.39C150.56 76.29 149.56 76.29 148.46 76.19C146.36 76.09 144.26 75.99 142.16 75.99C138.06 76.19 134.06 76.59 130.06 77.09C121.96 78.09 113.96 79.59 106.16 81.69C90.96 85.89 76.36 92.69 64.46 103.09C52.76 113.19 44.16 126.59 39.86 141.49C39.06 144.19 38.46 146.89 38.06 149.59C37.96 150.49 37.76 151.39 37.66 152.29C36.86 154.29 36.26 156.39 35.76 158.49C34.86 162.49 34.66 166.49 34.66 170.59C34.66 178.79 34.66 186.89 34.66 195.09C34.66 202.69 33.76 210.79 39.16 216.99C41.86 220.19 45.66 221.99 49.86 221.99C51.36 221.99 52.76 221.99 54.26 221.99C61.06 221.99 67.76 221.99 74.56 221.99C91.66 221.99 108.66 221.99 125.76 221.99C134.76 221.99 143.66 221.99 152.66 221.99C160.76 221.99 168.96 221.99 177.06 221.99C178.46 221.99 179.86 221.99 181.26 221.99C183.36 221.99 185.36 221.99 187.46 221.99C189.06 221.99 190.56 222.19 191.96 221.59C206.76 215.79 219.96 206.19 227.76 192.09C231.36 185.59 233.66 178.29 234.86 170.99C235.16 169.19 235.36 167.39 235.56 165.59C235.96 165.19 237.36 164.99 237.86 164.89C241.16 163.69 244.26 161.99 247.16 160.09C261.16 150.59 268.06 134.59 269.26 118.09C269.56 118.89 270.76 117.69 271.16 117.49C272.36 116.79 273.46 115.99 274.56 115.19C276.96 113.49 279.06 111.39 280.86 108.99C280.96 108.99 280.36 109.69 280.86 108.99Z" />
	</g>
	<g id="Layer">
		<path id="Layer" class="shp1" d="M283.76 61.19C278.26 84.69 253.06 83.29 253.06 83.29C248.06 115.59 220.86 109.39 220.86 109.39C209.86 137.29 170.86 125.89 169.76 125.59L169.76 125.59C157.56 116.69 139.96 109.49 114.96 109.49C70.86 109.49 49.76 131.89 40.76 146.59C39.66 148.49 38.66 150.39 37.86 152.49C39.36 139.19 51.06 81.79 142.26 76.19C146.46 76.19 150.46 76.39 154.26 76.69L154.56 76.19C154.56 76.19 155.36 75.39 156.86 73.99C158.36 72.69 160.56 70.79 163.36 68.79C174.06 60.99 193.96 50.59 218.56 55.89L217.36 54.49C217.36 54.49 234.56 27.19 265.46 41.79C273.36 45.49 279.76 52.69 283.76 61.19Z" />
	</g>
	<path id="Layer" fill-rule="evenodd" class="shp3" d="M191.06 225.59L51.16 225.59C41.66 225.59 34.06 216.79 34.06 205.99L34.06 155.09C34.06 154.89 34.06 153.79 34.26 151.99C35.66 139.79 47.16 78.39 141.96 72.69L142.16 72.69C145.56 72.69 149.16 72.79 152.66 73.09C153.06 72.69 153.66 72.09 154.46 71.39C156.56 69.49 158.86 67.69 161.16 65.99C170.66 59.09 185.96 50.99 205.06 50.99C208.36 50.99 211.56 51.19 214.86 51.69C217.46 47.99 228.66 33.89 247.56 33.89C253.76 33.89 260.26 35.49 266.76 38.59C275.16 42.59 282.36 50.09 286.96 59.79C296.76 80.39 293.96 108.59 272.56 120.89C270.46 141.39 261.16 153.29 253.56 159.79C247.66 164.79 241.96 167.39 238.86 168.49C236.56 187.89 226.36 212.79 192.36 225.49L191.06 225.59ZM142.26 79.59C104.56 81.89 76.46 93.39 58.86 113.59C45.06 129.49 41.86 146.29 41.16 152.69C40.96 154.19 40.96 155.09 40.96 155.09L40.96 205.99C40.96 212.99 45.56 218.69 51.16 218.69L190.36 218.69C215.66 208.99 229.76 191.09 232.06 165.49L234.66 162.39C235.76 162.09 262.86 154.89 265.66 117.89L268.56 116.99L267.76 115.39C286.76 105.39 289.16 80.79 280.46 62.69C276.56 54.49 270.56 48.09 263.56 44.79C257.96 42.19 252.56 40.79 247.36 40.79C229.86 40.79 220.06 55.99 219.96 56.19L219.46 55.89L217.46 59.19C213.26 58.29 209.06 57.89 204.86 57.89C187.66 57.89 173.66 65.39 165.06 71.59C162.86 73.19 160.86 74.79 158.86 76.59C157.96 77.39 157.36 77.99 157.06 78.29L156.96 78.49L153.76 80.09C149.96 79.79 146.16 79.59 142.26 79.59Z" />
	<path id="Layer" class="shp3" d="M40.96 155.19L33.96 155.09C33.96 154.29 34.46 135.59 48.16 115.99C70.86 83.49 111.66 74.49 141.86 72.69L142.26 79.59C101.16 82.09 70.56 96.09 53.86 119.99C41.46 137.89 40.96 154.99 40.96 155.19Z" />
	<path id="Layer" class="shp2" d="M49.66 222.19L180.06 222.19C188.26 222.19 194.96 214.29 194.96 204.49L194.96 168.29C194.96 160.49 192.96 152.79 189.06 146.49C180.06 131.79 159.06 109.39 114.86 109.39C70.66 109.39 49.66 131.79 40.66 146.49C36.76 152.79 34.76 160.49 34.76 168.29L34.76 204.49C34.76 214.29 41.46 222.19 49.66 222.19Z" />
	<path id="Layer" class="shp2" d="M49.66 222.19L180.06 222.19C188.26 222.19 194.96 214.29 194.96 204.49L194.96 168.29C194.96 160.49 192.96 152.79 189.06 146.49C180.06 131.79 159.06 109.39 114.86 109.39C70.66 109.39 49.66 131.79 40.66 146.49C36.76 152.79 34.76 160.49 34.76 168.29L34.76 204.49C34.76 214.29 41.46 222.19 49.66 222.19Z" />
	<path id="Layer" fill-rule="evenodd" class="shp3" d="M180.06 225.59L49.66 225.59C39.56 225.59 31.26 216.09 31.26 204.49L31.26 168.29C31.26 159.69 33.46 151.59 37.76 144.69C46.66 130.19 68.56 105.89 114.86 105.89C161.26 105.89 183.06 130.19 191.96 144.69C196.16 151.59 198.46 159.69 198.46 168.29L198.46 204.49C198.46 216.19 190.26 225.59 180.06 225.59ZM114.86 112.79C71.86 112.79 51.76 134.99 43.66 148.29C40.16 153.99 38.26 161.09 38.26 168.29L38.26 204.49C38.26 212.29 43.36 218.69 49.66 218.69L180.06 218.69C186.36 218.69 191.46 212.29 191.46 204.49L191.46 168.29C191.46 160.99 189.56 154.09 186.06 148.29C177.96 135.09 157.86 112.79 114.86 112.79Z" />
	<path id="Layer" class="shp1" d="M80.26 203.09C70.46 203.09 62.56 193.69 62.56 182.09L62.56 168.19C62.56 167.29 62.76 166.39 63.16 165.79C68.56 156.99 82.46 142.19 114.86 142.19C147.26 142.19 161.16 156.99 166.56 165.79C166.96 166.39 167.16 167.29 167.16 168.19L167.16 182.09C167.16 193.69 159.26 203.09 149.46 203.09L80.26 203.09Z" />
	<path id="Layer" class="shp3" d="M208.16 103.89C207.96 103.69 189.66 79.59 142.16 79.59L142.16 72.59C193.46 72.59 212.96 98.69 213.76 99.79L208.16 103.89L210.96 101.79L208.16 103.89Z" />
	<path id="Layer" class="shp3" d="M191.06 225.59L136.56 225.59L136.56 218.59L190.46 218.59C208.06 211.89 220.26 201.09 226.86 186.49C239.56 158.39 227.16 125.29 226.96 124.89L233.46 122.39C234.06 123.89 247.06 158.59 233.16 189.29C225.76 205.79 211.96 217.89 192.36 225.29L191.06 225.59Z" />
	<path id="Layer" class="shp3" d="M236.36 169.09L234.76 162.29L235.56 165.69L234.76 162.29C236.26 161.89 271.26 152.59 265.36 100.29L272.26 99.49C278.86 158.19 236.76 168.99 236.36 169.09Z" />
	<path id="Layer" class="shp3" d="M157.06 78.49L151.96 73.79C152.36 73.39 189.26 34.69 237.46 58.99L234.36 65.19C190.86 43.19 158.36 76.99 157.06 78.49Z" />
	<path id="Layer" class="shp3" d="M271.16 121.59L267.96 115.39C279.36 109.39 285.76 97.49 285.46 82.79C285.16 66.29 276.26 50.69 263.76 44.79C236.16 31.69 220.76 55.19 220.16 56.19L214.26 52.49C220.76 42.09 240.16 25.89 266.76 38.49C281.66 45.59 291.96 63.39 292.36 82.69C292.66 100.09 284.96 114.29 271.16 121.59Z" />
</svg>